<svg width="907" height="1088" viewBox="0 0 907 1088" fill="none" xmlns="http://www.w3.org/2000/svg">
        <g clip-path="url(#clip0_84_1034)">
        <path d="M1040.03 -30H-2V1298.05H1040.03V-30Z" fill="#FEE0B6"/>
        <path d="M1038.03 -31H24V1087.54H1038.03V-31Z" fill="#FFF3DD"/>
        <path d="M407.432 480.503C404.985 484.153 403.161 488.086 401.812 491.812C398.555 500.772 399.827 506.588 399.827 506.588C396.436 508.235 385.48 510.18 379.839 506.047C372.42 500.616 361.398 501.445 361.398 501.445C368.247 490.009 378.563 456.142 378.563 456.142L381.354 458.493L407.432 480.503Z" fill="#FF9A76"/>
        <path d="M407.432 480.503C404.985 484.153 403.161 488.086 401.812 491.812C397.37 490.103 393.757 487.137 392.117 485.723C388.61 482.724 381.714 472.408 381.351 458.497L407.432 480.503Z" fill="#BF7359"/>
        <path d="M389.111 476.108C392.775 479.256 406.229 490.132 416.868 477.657C427.508 465.181 434.734 432.343 423.724 420.933C412.71 409.522 387.865 411.83 380.704 433.31C373.539 454.785 384.397 472.062 389.111 476.108Z" fill="#FF9A76"/>
        <path d="M377.091 468.591C374.143 478.017 362.965 435.229 365.219 423.016C367.472 410.802 374.782 409.897 374.782 409.897C374.782 409.897 370.22 408.592 365.524 412.794C365.524 412.794 369.93 404.375 377.625 407.629C377.625 407.629 378.813 389.385 393.164 387.033C393.164 387.033 383.379 393.837 383.815 400.162C383.815 400.162 393.052 385.19 414.538 395.313C436.025 405.437 440.256 400.159 443.542 407.167C443.542 407.167 438.482 403.736 435.225 405.655C435.225 405.655 444.033 417.17 437.824 424.964C431.616 432.757 411.078 429.119 405.698 426.716C400.318 424.317 399.239 426.462 400.173 432.877C401.074 439.057 394.804 439.646 395.037 444.909C395.037 444.909 389.617 445.636 388.784 444.015C387.952 442.394 390.733 430.605 379.635 436.945C374.975 439.613 380.944 456.272 377.091 468.591Z" fill="#333232"/>
        <path d="M378.563 456.141C370.413 453.444 366.633 437.417 374.023 433.938C381.413 430.463 385.233 431.79 386.92 434.658C388.613 437.523 386.956 458.918 378.563 456.141Z" fill="#FF9A76"/>
        <path d="M435.378 567.591C438.586 567.591 441.187 565.789 441.187 563.567C441.187 561.344 438.586 559.542 435.378 559.542C432.17 559.542 429.569 561.344 429.569 563.567C429.569 565.789 432.17 567.591 435.378 567.591Z" fill="#B98579"/>
        <path d="M426.516 558.448C426.516 558.448 437.944 569.782 453.847 568.041C480.757 565.097 533.766 504.621 540.222 487.028L519.71 490.121C519.71 490.121 462.273 535.515 459.231 536.449C456.188 537.387 438.638 533.825 438.638 533.825L426.516 558.448Z" fill="#F99475"/>
        <path d="M449.249 535.719C449.249 535.719 430.656 544.228 432.081 566.871L393.47 547.449L416.636 522.411L449.249 535.719Z" fill="#555555"/>
        <path d="M698.217 625.423C699.275 631.149 703.655 651.984 701.074 653.649C698.494 655.314 688.065 656.721 674.764 655.83C663.848 655.1 657.585 656.681 642.565 655.609C628.204 654.584 624.765 651.625 630.108 648.059C635.452 644.493 665.528 635.1 670.006 626.034C674.481 616.972 698.217 625.423 698.217 625.423Z" fill="white"/>
        <path d="M674.553 637.925L672.365 639.702C672.169 639.862 671.878 639.833 671.718 639.637L664.659 630.953C664.499 630.756 664.528 630.465 664.724 630.306L666.913 628.528C667.109 628.368 667.4 628.397 667.56 628.593L674.619 637.277C674.779 637.474 674.75 637.765 674.553 637.925Z" fill="#ED6262"/>
        <path d="M668.537 641.043L666.349 642.82C666.153 642.98 665.862 642.951 665.702 642.755L658.643 634.071C658.483 633.874 658.512 633.584 658.708 633.424L660.897 631.646C661.093 631.486 661.384 631.515 661.544 631.712L668.603 640.396C668.766 640.596 668.734 640.883 668.537 641.043Z" fill="#ED6262"/>
        <path d="M704.342 646.347C704.342 646.347 656.749 651.566 627.647 647.412C598.546 643.257 616.684 665.896 638.153 669.767C659.621 673.638 724.251 654.14 704.342 646.347Z" fill="#555555"/>
        <path d="M389.079 899.433C388.021 905.158 383.641 925.994 386.222 927.659C388.802 929.324 399.231 930.73 412.532 929.84C423.448 929.109 429.711 930.69 444.731 929.618C459.093 928.593 462.531 925.634 457.188 922.068C451.844 918.502 421.768 909.11 417.29 900.044C412.815 890.978 389.079 899.433 389.079 899.433Z" fill="white"/>
        <path d="M412.742 911.93L414.931 913.708C415.127 913.868 415.418 913.839 415.578 913.642L422.637 904.958C422.797 904.762 422.768 904.471 422.571 904.311L420.383 902.534C420.187 902.374 419.896 902.403 419.736 902.599L412.677 911.283C412.517 911.483 412.546 911.77 412.742 911.93Z" fill="#2A2A2A"/>
        <path d="M418.759 915.053L420.947 916.83C421.143 916.99 421.434 916.961 421.594 916.765L428.653 908.081C428.813 907.885 428.784 907.594 428.588 907.434L426.399 905.656C426.203 905.497 425.912 905.526 425.752 905.722L418.693 914.406C418.53 914.606 418.562 914.893 418.759 915.053Z" fill="#2A2A2A"/>
        <path d="M382.954 920.356C382.954 920.356 430.547 925.576 459.649 921.421C488.75 917.266 470.612 939.905 449.143 943.777C427.675 947.644 363.045 928.15 382.954 920.356Z" fill="#555555"/>
        <path d="M319.305 847.333C314.605 850.775 297.131 862.93 297.866 865.915C298.6 868.896 305.227 877.074 315.514 885.547C323.958 892.505 327.429 897.95 339.097 907.474C350.25 916.579 354.783 916.783 353.339 910.523C351.896 904.264 336.451 876.798 339.414 867.129C342.376 857.46 319.305 847.333 319.305 847.333Z" fill="white"/>
        <path d="M327.952 872.658L328.323 875.453C328.356 875.704 328.589 875.882 328.839 875.849L339.933 874.373C340.184 874.341 340.362 874.108 340.33 873.857L339.959 871.062C339.926 870.811 339.694 870.633 339.443 870.666L328.349 872.142C328.094 872.174 327.92 872.407 327.952 872.658Z" fill="#2A2A2A"/>
        <path d="M330.188 879.055L330.559 881.851C330.592 882.102 330.824 882.28 331.075 882.247L342.169 880.771C342.42 880.738 342.598 880.506 342.565 880.255L342.194 877.46C342.162 877.209 341.929 877.031 341.678 877.063L330.584 878.539C330.33 878.572 330.152 878.805 330.188 879.055Z" fill="#2A2A2A"/>
        <path d="M300.497 858.354C300.497 858.354 331.547 894.799 355.575 911.738C379.602 928.677 350.875 932.708 332.598 920.8C314.321 908.888 280.665 850.368 300.497 858.354Z" fill="#555555"/>
        <path d="M784.149 625.98C785.207 631.705 789.587 652.541 787.006 654.205C784.425 655.87 773.996 657.277 760.696 656.386C749.78 655.656 743.517 657.237 728.497 656.165C714.135 655.14 710.696 652.181 716.04 648.615C721.383 645.049 751.459 635.656 755.937 626.59C760.416 617.525 784.149 625.98 784.149 625.98Z" fill="white"/>
        <path d="M760.488 638.477L758.3 640.255C758.104 640.415 757.813 640.386 757.653 640.189L750.594 631.505C750.434 631.309 750.463 631.018 750.659 630.858L752.848 629.081C753.044 628.921 753.335 628.95 753.495 629.146L760.554 637.83C760.714 638.03 760.685 638.317 760.488 638.477Z" fill="#ED6262"/>
        <path d="M754.473 641.599L752.284 643.377C752.088 643.537 751.797 643.508 751.637 643.312L744.578 634.627C744.418 634.431 744.447 634.14 744.644 633.98L746.832 632.203C747.028 632.043 747.319 632.072 747.479 632.268L754.538 640.952C754.702 641.152 754.669 641.439 754.473 641.599Z" fill="#ED6262"/>
        <path d="M790.274 646.903C790.274 646.903 742.681 652.123 713.579 647.968C684.477 643.814 702.616 666.452 724.084 670.324C745.552 674.195 810.186 654.697 790.274 646.903Z" fill="#555555"/>
        <path d="M634.939 414.328C634.939 414.328 610.712 441.259 578.401 477.202C578.401 477.202 568.448 489.514 551.556 498.311C535.169 506.846 558.702 458.257 561.243 457.893C563.784 457.53 576.638 444.993 583.028 435.385C592.642 420.929 600.454 405.615 600.454 405.615C600.454 405.615 620.781 395.084 634.939 414.328Z" fill="#FFBEA6"/>
        <path d="M792.866 458.988C775.243 460.511 741.441 492.789 722.216 532.527C713.699 550.106 712.089 569.63 707.908 587.63C698.77 626.994 699.326 631.25 699.326 631.25C688.468 623.021 669.628 626.696 669.628 626.696C663.728 547.921 699.166 472.008 713.721 443.008C735.116 400.377 764.549 380.537 764.549 380.537C766.795 379.566 768.904 378.767 770.899 378.145C822.484 362.028 792.866 458.988 792.866 458.988Z" fill="#555555"/>
        <path d="M788.511 383.638C788.511 383.638 730.104 499.18 732.441 520.107C734.778 541.034 757.646 624.504 757.646 624.504C757.646 624.504 773.989 622.465 784.974 630.287C785.694 630.8 788.631 573.679 786.355 554.988C784.854 542.644 786.813 509.493 792.865 501.685C798.918 493.88 874.188 420.922 858.215 382.587C844.573 349.851 830.622 339.934 821.186 341.73C811.746 343.533 788.511 383.638 788.511 383.638Z" fill="#555555"/>
        <path d="M446.97 525.693C446.97 532.309 441.117 538.201 433.898 538.201C426.679 538.201 420.827 532.313 420.827 525.693C420.827 519.074 426.679 513.712 433.898 513.712C441.117 513.712 446.97 519.074 446.97 525.693Z" fill="#555555"/>
        <path d="M426.548 525.694C426.548 525.694 475.559 515.89 498.161 504.727C520.76 493.564 542 487.995 543.904 489.144C545.809 490.292 568.684 497.206 573.068 492.168C574.853 490.114 557.074 488.733 556.819 487.381C556.409 485.203 574.126 490.838 576.576 487.301C579.026 483.76 557.696 483.579 558.513 482.219C559.331 480.856 579.636 483.219 577.263 479.133C574.889 475.047 558.328 476.036 559.695 473.8C560.876 471.874 577.455 472.961 576.972 468.788C576.576 465.385 559.695 467.156 555.336 468.788C550.978 470.42 535.733 472.056 531.92 471.783C528.107 471.51 474.937 485.661 464.12 487.032C450.361 488.773 443.393 489.962 441.088 490.939C425.116 497.733 426.548 525.694 426.548 525.694Z" fill="#FF9A76"/>
        <path d="M375.356 668.098C375.356 668.098 430.223 758.541 426.512 771.568C420.827 791.535 339.41 867.129 339.41 867.129C339.41 867.129 324.168 849.586 316.179 849.586C316.179 849.586 370.304 769.028 369.559 765.76C368.817 762.492 283.863 712.511 299.836 672.151L375.356 668.098Z" fill="#C85C1F"/>
        <path d="M298.574 678.447C298.574 715.724 365.858 789.976 371.256 808.642C374.826 820.986 387.854 905.882 387.854 905.882L417.293 900.044C417.293 900.044 424.055 736.749 381.409 665.667L298.574 678.447Z" fill="#DF6F2F"/>
        <path d="M834.435 345.71C834.435 345.71 818.038 415.876 756.017 395.735C756.017 395.735 750.158 390.159 739.322 382.598C739.322 382.598 739.322 382.598 739.322 382.587C734.531 379.254 728.758 375.517 722.103 371.719C713.281 366.677 702.892 361.501 691.129 356.917C687.588 355.543 683.928 354.216 680.151 352.973C675.306 351.373 670.26 349.89 665.033 348.564C664.87 348.52 664.695 348.476 664.532 348.433C664.532 348.433 664.259 349.632 663.736 351.701C660.762 363.616 649.675 404.317 636.211 409.424L602.653 388.73C602.653 388.73 618.109 384.917 618.109 329.916C618.109 329.916 620.417 236.249 699.926 250.953C779.434 265.656 834.435 345.71 834.435 345.71Z" fill="#FF843F"/>
        <path d="M665.03 348.564C664.866 348.52 664.692 348.476 664.528 348.433C664.528 348.433 664.255 349.632 663.732 351.701C651.489 340.614 633.452 342.562 632.082 342.726C647.091 339.611 658.527 344.456 665.03 348.564Z" fill="#DF6F2F"/>
        <path d="M739.322 382.587C734.531 379.254 728.759 375.517 722.103 371.718C726.578 349.643 728.41 319.571 718.552 286.23C718.552 286.23 751.878 307.906 739.322 382.587Z" fill="#DF6F2F"/>
        <path d="M680.148 352.977C682.63 342.119 680.06 332.839 676.869 318.844C672.783 300.993 675.473 286.234 675.473 286.234C688.294 295.656 690.733 335.899 691.125 356.921C687.585 355.547 683.924 354.216 680.148 352.977Z" fill="#DF6F2F"/>
        <path d="M719.878 413.238C719.878 413.238 674.288 451.54 638.923 463.397C603.555 475.254 600.548 476.588 596.804 479.264C593.06 481.939 592.101 475.861 602.653 468.562C607.39 465.287 584.151 479.925 583.657 473.797C583.384 470.416 600.007 462.485 599.476 461.608C598.873 460.612 573.795 473.022 578.611 468.028C583.428 463.033 596.423 456.421 595.732 455.367C595.143 454.466 586.75 456.378 578.077 463.037C568.571 470.336 570.229 451.089 597.335 447.167C624.441 443.244 623.373 442.528 632.467 437.181C641.562 431.831 679.014 401.86 679.904 400.17C680.799 398.479 714.728 381.875 719.878 413.238Z" fill="#FFCBB8"/>
        <path d="M561.24 457.894C561.24 457.894 550.087 457.443 545.536 459.526C539.001 462.521 527.082 486.836 535.733 487.028C541.723 487.163 546.42 470.62 547.841 470.398C549.262 470.176 565.413 466.843 565.413 466.843L561.24 457.894Z" fill="#FFBEA6"/>
        <path d="M557.775 488.864C561.181 494.382 544.507 505.839 531.48 500.394C518.452 494.949 526.885 484.091 535.06 492.808C535.06 492.808 531.672 474.295 544.046 489.536C545.954 491.881 540.654 461.129 557.775 488.864Z" fill="#FFBEA6"/>
        <path d="M448.173 930.116H61.8015V1088.54H448.173V930.116Z" fill="#DF6F2F"/>
        <path d="M173.836 930.116H61.8015V1088.54H173.836V930.116Z" fill="#FF843F"/>
        <path d="M853.032 655.823H483.185V1088.54H853.032V655.823Z" fill="#FF843F"/>
        <path d="M853.032 655.823H643.856V1088.54H853.032V655.823Z" fill="#DF6F2F"/>
        <path d="M652.831 314.594C644.754 321.217 638.49 304.329 618.803 292.323C614.776 289.862 610.185 287.608 604.903 285.802L602.657 226.162C602.657 226.162 609.661 240.673 621.497 251.673C628.356 258.059 636.851 263.25 646.557 263.755C662.929 264.591 666.705 303.235 652.831 314.594Z" fill="#FFCBB8"/>
        <path d="M618.8 292.323C614.772 289.862 610.181 287.608 604.9 285.802L602.653 226.162C602.653 226.162 609.658 240.673 621.494 251.673C623.315 262.559 624.216 278.117 618.8 292.323Z" fill="#FFBEA6"/>
        <path d="M607.673 228.085C607.673 228.085 631.115 274.242 607.644 287.931C584.173 301.624 550.731 263.508 546.602 243.73C542.472 223.955 584.416 206.787 607.673 228.085Z" fill="#FFCBB8"/>
        <path d="M703.194 274.37C692.049 269.855 665.073 263.039 679.232 316.081C693.39 369.123 681.409 384.917 680.322 386.549C679.232 388.181 726.61 400.162 726.61 400.162C726.61 400.162 738.337 327.041 728.533 303.326C721.129 285.416 710.729 277.423 703.194 274.37Z" fill="#FF843F"/>
        <path d="M715.447 420.046C708.094 379.203 678.701 405.942 675.215 403.438C674.059 402.609 673.365 401.413 673.059 399.952C672.7 398.298 672.863 396.313 673.496 394.18C677.156 381.533 696.574 363.293 718.555 374.031C748.144 388.491 716.741 427.233 715.447 420.046Z" fill="#FF843F"/>
        <path d="M722.23 393.067C696.429 373.485 675.179 397.425 673.056 399.951C672.696 398.298 672.859 396.313 673.492 394.179C704.564 371.588 721.547 392.205 722.23 393.067Z" fill="#FF843F"/>
        <path d="M630.105 424.088C630.105 424.088 623.954 406.432 612.791 406.705C601.628 406.978 597.259 411.609 597.259 411.609C597.259 411.609 594.78 408.272 594.245 403.786C594.027 401.958 593.907 399.94 594.005 397.883C594.463 388.145 599.712 377.451 622.049 381.384C660.715 388.188 637.731 422.725 630.105 424.088Z" fill="#FF843F"/>
        <path d="M628.585 405.615C615.994 392.598 600.399 399.984 594.245 403.786C594.027 401.958 593.907 399.94 594.005 397.883C622.627 388.697 628.585 405.615 628.585 405.615Z" fill="#DF6F2F"/>
        <path d="M527.107 264.937C511.418 265.082 509.361 249.201 509.361 249.201C513.748 252.898 525.755 252.469 530.022 247.107C520.648 248.896 517.067 237.427 517.067 237.427C523.25 243.505 529.732 240.815 533.883 237.754C536.082 229.005 537.212 218.663 550.731 208.791C556.398 204.65 561.345 202.898 565.482 202.451C562.214 198.951 555.336 197.973 555.336 197.973C569.876 193.277 577.248 202.397 579.942 207.031C579.942 207.031 587.397 198.453 596.972 202.346C596.972 202.346 594.315 202.473 591.25 203.865C603.464 206.831 615.005 226.537 617.448 232.673C620.185 239.543 625.688 248.598 627.091 250.87C627.324 251.248 627.473 251.662 627.531 252.102C627.807 254.232 628.156 260.157 622.384 254.632C616.463 248.961 609.105 235.595 600.919 235.617C594.285 235.632 603.682 249.568 603.682 249.568L599.207 255.097C594.776 248.114 591.447 250.655 584.907 249.659C581.861 249.194 579.927 234.308 552.243 268.885C534.155 291.476 509.146 265.599 509.146 265.599C521.371 270.077 527.107 264.937 527.107 264.937Z" fill="#383838"/>
        <path d="M392.783 675.725C384.371 684.343 343.085 690.428 298.571 678.447C276.888 672.613 327.338 510.554 355.891 499.318C386.204 487.388 437.264 494.153 443.059 490.209C445.483 488.558 421.303 510.888 434.564 538.201C434.564 538.201 420.093 538.201 409.664 551.564C376.458 594.104 399.689 668.647 392.783 675.725Z" fill="#555555"/>
        </g>
        <defs>
        <clipPath id="clip0_84_1034">
        <rect width="907" height="1089" fill="white"/>
        </clipPath>
        </defs>
        </svg>