<svg width="907" height="875" viewBox="0 0 907 875" fill="none" xmlns="http://www.w3.org/2000/svg">
<g clip-path="url(#clip0_87_144)">
<path d="M1040.03 -178H-2V1150.05H1040.03V-178Z" fill="#FEE0B6"/>
<path d="M1038.03 -179H24V939.54H1038.03V-179Z" fill="#FFF3DD"/>
<path d="M407.432 332.503C404.986 336.153 403.161 340.086 401.812 343.812C398.555 352.772 399.828 358.588 399.828 358.588C396.436 360.235 385.48 362.18 379.839 358.047C372.42 352.616 361.398 353.445 361.398 353.445C368.247 342.009 378.563 308.142 378.563 308.142L381.355 310.493L407.432 332.503Z" fill="#FF9A76"/>
<path d="M407.432 332.503C404.985 336.153 403.161 340.086 401.812 343.812C397.37 342.103 393.757 339.137 392.117 337.723C388.61 334.724 381.714 324.408 381.351 310.497L407.432 332.503Z" fill="#BF7359"/>
<path d="M389.112 328.108C392.776 331.256 406.229 342.132 416.869 329.657C427.508 317.181 434.735 284.343 423.724 272.933C412.71 261.522 387.865 263.83 380.704 285.31C373.539 306.785 384.397 324.062 389.112 328.108Z" fill="#FF9A76"/>
<path d="M377.091 320.591C374.143 330.017 362.965 287.229 365.219 275.016C367.473 262.802 374.783 261.897 374.783 261.897C374.783 261.897 370.221 260.592 365.524 264.794C365.524 264.794 369.93 256.375 377.625 259.629C377.625 259.629 378.814 241.385 393.165 239.033C393.165 239.033 383.379 245.837 383.816 252.162C383.816 252.162 393.052 237.19 414.539 247.313C436.025 257.437 440.256 252.159 443.542 259.167C443.542 259.167 438.482 255.736 435.225 257.655C435.225 257.655 444.033 269.17 437.824 276.964C431.616 284.757 411.078 281.119 405.698 278.716C400.318 276.317 399.239 278.462 400.173 284.877C401.075 291.057 394.804 291.646 395.037 296.909C395.037 296.909 389.617 297.636 388.785 296.015C387.952 294.394 390.733 282.605 379.635 288.945C374.975 291.613 380.944 308.272 377.091 320.591Z" fill="#333232"/>
<path d="M378.563 308.141C370.413 305.444 366.633 289.417 374.023 285.938C381.413 282.463 385.233 283.79 386.92 286.658C388.614 289.523 386.956 310.918 378.563 308.141Z" fill="#FF9A76"/>
<path d="M435.378 419.591C438.586 419.591 441.187 417.789 441.187 415.567C441.187 413.344 438.586 411.542 435.378 411.542C432.17 411.542 429.569 413.344 429.569 415.567C429.569 417.789 432.17 419.591 435.378 419.591Z" fill="#B98579"/>
<path d="M426.516 410.448C426.516 410.448 437.944 421.782 453.847 420.041C480.757 417.097 533.766 356.621 540.222 339.028L519.71 342.121C519.71 342.121 462.273 387.515 459.231 388.449C456.188 389.387 438.638 385.825 438.638 385.825L426.516 410.448Z" fill="#F99475"/>
<path d="M449.249 387.719C449.249 387.719 430.656 396.228 432.081 418.871L393.47 399.449L416.636 374.411L449.249 387.719Z" fill="#555555"/>
<path d="M698.218 477.423C699.275 483.149 703.656 503.984 701.075 505.649C698.494 507.314 688.065 508.721 674.765 507.83C663.849 507.1 657.586 508.681 642.566 507.609C628.204 506.584 624.765 503.625 630.109 500.059C635.452 496.493 665.528 487.1 670.007 478.034C674.481 468.972 698.218 477.423 698.218 477.423Z" fill="white"/>
<path d="M674.553 489.925L672.365 491.702C672.169 491.862 671.878 491.833 671.718 491.637L664.659 482.953C664.499 482.756 664.528 482.465 664.724 482.306L666.913 480.528C667.109 480.368 667.4 480.397 667.56 480.593L674.619 489.277C674.779 489.474 674.75 489.765 674.553 489.925Z" fill="#ED6262"/>
<path d="M668.538 493.043L666.349 494.82C666.153 494.98 665.862 494.951 665.702 494.755L658.643 486.071C658.483 485.874 658.512 485.584 658.709 485.424L660.897 483.646C661.093 483.486 661.384 483.515 661.544 483.712L668.603 492.396C668.767 492.596 668.734 492.883 668.538 493.043Z" fill="#ED6262"/>
<path d="M704.343 498.347C704.343 498.347 656.749 503.566 627.648 499.412C598.546 495.257 616.684 517.896 638.153 521.767C659.621 525.638 724.251 506.14 704.343 498.347Z" fill="#555555"/>
<path d="M389.079 751.433C388.021 757.158 383.641 777.994 386.222 779.659C388.802 781.324 399.231 782.73 412.532 781.84C423.448 781.109 429.711 782.69 444.731 781.618C459.093 780.593 462.531 777.634 457.188 774.068C451.844 770.502 421.768 761.11 417.29 752.044C412.815 742.978 389.079 751.433 389.079 751.433Z" fill="white"/>
<path d="M412.742 763.93L414.931 765.708C415.127 765.868 415.418 765.839 415.578 765.642L422.637 756.958C422.797 756.762 422.768 756.471 422.571 756.311L420.383 754.534C420.187 754.374 419.896 754.403 419.736 754.599L412.677 763.283C412.517 763.483 412.546 763.77 412.742 763.93Z" fill="#2A2A2A"/>
<path d="M418.759 767.053L420.947 768.83C421.143 768.99 421.434 768.961 421.594 768.765L428.653 760.081C428.813 759.885 428.784 759.594 428.588 759.434L426.399 757.656C426.203 757.497 425.912 757.526 425.752 757.722L418.693 766.406C418.53 766.606 418.562 766.893 418.759 767.053Z" fill="#2A2A2A"/>
<path d="M382.954 772.356C382.954 772.356 430.547 777.576 459.649 773.421C488.75 769.266 470.612 791.905 449.143 795.777C427.675 799.644 363.045 780.15 382.954 772.356Z" fill="#555555"/>
<path d="M319.305 699.333C314.605 702.775 297.131 714.93 297.866 717.915C298.6 720.896 305.227 729.074 315.514 737.547C323.958 744.505 327.429 749.95 339.097 759.474C350.25 768.579 354.783 768.783 353.339 762.523C351.896 756.264 336.451 728.798 339.414 719.129C342.376 709.46 319.305 699.333 319.305 699.333Z" fill="white"/>
<path d="M327.952 724.658L328.323 727.453C328.356 727.704 328.588 727.882 328.839 727.849L339.933 726.373C340.184 726.341 340.362 726.108 340.329 725.857L339.959 723.062C339.926 722.811 339.693 722.633 339.442 722.666L328.348 724.142C328.094 724.174 327.919 724.407 327.952 724.658Z" fill="#2A2A2A"/>
<path d="M330.188 731.055L330.559 733.851C330.592 734.102 330.824 734.28 331.075 734.247L342.169 732.771C342.42 732.738 342.598 732.506 342.565 732.255L342.195 729.46C342.162 729.209 341.929 729.031 341.678 729.063L330.585 730.539C330.33 730.572 330.152 730.805 330.188 731.055Z" fill="#2A2A2A"/>
<path d="M300.497 710.354C300.497 710.354 331.547 746.799 355.575 763.738C379.602 780.677 350.875 784.708 332.598 772.8C314.321 760.888 280.665 702.368 300.497 710.354Z" fill="#555555"/>
<path d="M784.149 477.98C785.206 483.705 789.586 504.541 787.006 506.205C784.425 507.87 773.996 509.277 760.695 508.386C749.78 507.656 743.516 509.237 728.497 508.165C714.135 507.14 710.696 504.181 716.039 500.615C721.383 497.049 751.459 487.656 755.937 478.59C760.416 469.525 784.149 477.98 784.149 477.98Z" fill="white"/>
<path d="M760.488 490.477L758.3 492.255C758.104 492.415 757.813 492.386 757.653 492.189L750.594 483.505C750.434 483.309 750.463 483.018 750.659 482.858L752.848 481.081C753.044 480.921 753.335 480.95 753.495 481.146L760.554 489.83C760.714 490.03 760.685 490.317 760.488 490.477Z" fill="#ED6262"/>
<path d="M754.473 493.599L752.284 495.377C752.088 495.537 751.797 495.508 751.637 495.312L744.578 486.627C744.418 486.431 744.447 486.14 744.644 485.98L746.832 484.203C747.028 484.043 747.319 484.072 747.479 484.268L754.538 492.952C754.702 493.152 754.669 493.439 754.473 493.599Z" fill="#ED6262"/>
<path d="M790.274 498.903C790.274 498.903 742.681 504.123 713.579 499.968C684.477 495.814 702.616 518.452 724.084 522.324C745.552 526.195 810.186 506.697 790.274 498.903Z" fill="#555555"/>
<path d="M634.94 266.328C634.94 266.328 610.712 293.259 578.401 329.202C578.401 329.202 568.448 341.514 551.556 350.311C535.17 358.846 558.703 310.257 561.244 309.893C563.784 309.53 576.638 296.993 583.028 287.385C592.643 272.929 600.454 257.615 600.454 257.615C600.454 257.615 620.781 247.084 634.94 266.328Z" fill="#FFBEA6"/>
<path d="M792.865 310.988C775.243 312.511 741.441 344.789 722.215 384.527C713.699 402.106 712.088 421.63 707.908 439.63C698.77 478.994 699.326 483.25 699.326 483.25C688.468 475.021 669.628 478.696 669.628 478.696C663.728 399.921 699.166 324.008 713.72 295.008C735.116 252.377 764.549 232.537 764.549 232.537C766.795 231.566 768.903 230.767 770.899 230.145C822.483 214.028 792.865 310.988 792.865 310.988Z" fill="#555555"/>
<path d="M788.511 235.638C788.511 235.638 730.104 351.18 732.441 372.107C734.778 393.034 757.646 476.504 757.646 476.504C757.646 476.504 773.989 474.465 784.974 482.287C785.694 482.8 788.631 425.679 786.355 406.988C784.854 394.644 786.813 361.493 792.865 353.685C798.918 345.88 874.188 272.922 858.215 234.587C844.573 201.851 830.622 191.934 821.186 193.73C811.746 195.533 788.511 235.638 788.511 235.638Z" fill="#555555"/>
<path d="M446.97 377.693C446.97 384.309 441.118 390.201 433.899 390.201C426.679 390.201 420.827 384.313 420.827 377.693C420.827 371.074 426.679 365.712 433.899 365.712C441.118 365.712 446.97 371.074 446.97 377.693Z" fill="#555555"/>
<path d="M426.548 377.694C426.548 377.694 475.559 367.89 498.161 356.727C520.76 345.564 542 339.995 543.904 341.144C545.809 342.292 568.684 349.206 573.068 344.168C574.853 342.114 557.074 340.733 556.819 339.381C556.409 337.203 574.126 342.838 576.576 339.301C579.026 335.76 557.696 335.579 558.513 334.219C559.331 332.856 579.636 335.219 577.263 331.133C574.889 327.047 558.328 328.036 559.695 325.8C560.876 323.874 577.455 324.961 576.972 320.788C576.576 317.385 559.695 319.156 555.336 320.788C550.978 322.42 535.733 324.056 531.92 323.783C528.107 323.51 474.937 337.661 464.12 339.032C450.361 340.773 443.393 341.962 441.088 342.939C425.116 349.733 426.548 377.694 426.548 377.694Z" fill="#FF9A76"/>
<path d="M375.356 520.098C375.356 520.098 430.223 610.541 426.512 623.568C420.827 643.535 339.41 719.129 339.41 719.129C339.41 719.129 324.168 701.586 316.179 701.586C316.179 701.586 370.304 621.028 369.559 617.76C368.817 614.492 283.863 564.511 299.836 524.151L375.356 520.098Z" fill="#C85C1F"/>
<path d="M298.574 530.447C298.574 567.724 365.858 641.976 371.256 660.642C374.826 672.986 387.853 757.882 387.853 757.882L417.293 752.044C417.293 752.044 424.054 588.749 381.408 517.667L298.574 530.447Z" fill="#DF6F2F"/>
<path d="M834.435 197.71C834.435 197.71 818.038 267.876 756.018 247.735C756.018 247.735 750.158 242.159 739.322 234.598C739.322 234.598 739.322 234.598 739.322 234.587C734.531 231.254 728.759 227.517 722.103 223.719C713.281 218.677 702.892 213.501 691.129 208.917C687.589 207.543 683.928 206.216 680.152 204.973C675.306 203.373 670.261 201.89 665.034 200.564C664.87 200.52 664.696 200.476 664.532 200.433C664.532 200.433 664.259 201.632 663.736 203.701C660.762 215.616 649.676 256.317 636.212 261.424L602.653 240.73C602.653 240.73 618.109 236.917 618.109 181.916C618.109 181.916 620.418 88.2493 699.926 102.953C779.434 117.656 834.435 197.71 834.435 197.71Z" fill="#FF843F"/>
<path d="M665.03 200.564C664.866 200.52 664.692 200.476 664.528 200.433C664.528 200.433 664.255 201.632 663.732 203.701C651.489 192.614 633.452 194.562 632.082 194.726C647.091 191.611 658.527 196.456 665.03 200.564Z" fill="#DF6F2F"/>
<path d="M739.322 234.587C734.531 231.254 728.759 227.517 722.103 223.718C726.578 201.643 728.41 171.571 718.552 138.23C718.552 138.23 751.878 159.906 739.322 234.587Z" fill="#DF6F2F"/>
<path d="M680.148 204.977C682.63 194.119 680.06 184.839 676.869 170.844C672.783 152.993 675.473 138.234 675.473 138.234C688.294 147.656 690.733 187.899 691.125 208.921C687.585 207.547 683.924 206.216 680.148 204.977Z" fill="#DF6F2F"/>
<path d="M719.878 265.238C719.878 265.238 674.288 303.54 638.923 315.397C603.554 327.254 600.548 328.588 596.804 331.264C593.06 333.939 592.1 327.861 602.653 320.562C607.389 317.287 584.151 331.925 583.656 325.797C583.384 322.416 600.007 314.485 599.476 313.608C598.873 312.612 573.795 325.022 578.611 320.028C583.427 315.033 596.422 308.421 595.732 307.367C595.143 306.466 586.75 308.378 578.077 315.037C568.571 322.336 570.229 303.089 597.335 299.167C624.441 295.244 623.372 294.528 632.467 289.181C641.562 283.831 679.013 253.86 679.904 252.17C680.798 250.479 714.727 233.875 719.878 265.238Z" fill="#FFCBB8"/>
<path d="M561.24 309.894C561.24 309.894 550.087 309.443 545.536 311.526C539.001 314.521 527.082 338.836 535.733 339.028C541.723 339.163 546.42 322.62 547.841 322.398C549.262 322.176 565.413 318.843 565.413 318.843L561.24 309.894Z" fill="#FFBEA6"/>
<path d="M557.775 340.864C561.181 346.382 544.507 357.839 531.48 352.394C518.452 346.949 526.885 336.091 535.06 344.808C535.06 344.808 531.672 326.295 544.046 341.536C545.954 343.881 540.654 313.129 557.775 340.864Z" fill="#FFBEA6"/>
<path d="M448.173 782.116H61.8018V940.54H448.173V782.116Z" fill="#DF6F2F"/>
<path d="M173.836 782.116H61.8018V940.54H173.836V782.116Z" fill="#FF843F"/>
<path d="M853.032 507.823H483.186V940.54H853.032V507.823Z" fill="#FF843F"/>
<path d="M853.032 507.823H643.856V940.54H853.032V507.823Z" fill="#DF6F2F"/>
<path d="M652.831 166.594C644.754 173.217 638.49 156.329 618.803 144.323C614.776 141.862 610.185 139.608 604.903 137.802L602.657 78.1621C602.657 78.1621 609.661 92.673 621.497 103.673C628.356 110.059 636.851 115.25 646.557 115.755C662.929 116.591 666.705 155.235 652.831 166.594Z" fill="#FFCBB8"/>
<path d="M618.8 144.323C614.772 141.862 610.181 139.608 604.9 137.802L602.653 78.1621C602.653 78.1621 609.658 92.673 621.494 103.673C623.315 114.559 624.216 130.117 618.8 144.323Z" fill="#FFBEA6"/>
<path d="M607.673 80.0848C607.673 80.0848 631.115 126.242 607.644 139.931C584.173 153.624 550.731 115.508 546.602 95.7298C542.472 75.9554 584.416 58.7873 607.673 80.0848Z" fill="#FFCBB8"/>
<path d="M703.194 126.37C692.049 121.855 665.074 115.039 679.232 168.081C693.39 221.123 681.409 236.917 680.322 238.549C679.232 240.181 726.61 252.162 726.61 252.162C726.61 252.162 738.337 179.041 728.533 155.326C721.129 137.416 710.729 129.423 703.194 126.37Z" fill="#FF843F"/>
<path d="M715.448 272.046C708.094 231.203 678.701 257.942 675.215 255.438C674.06 254.609 673.365 253.413 673.06 251.952C672.7 250.298 672.864 248.313 673.496 246.18C677.157 233.533 696.575 215.293 718.556 226.031C748.144 240.491 716.742 279.233 715.448 272.046Z" fill="#FF843F"/>
<path d="M722.23 245.067C696.429 225.485 675.179 249.425 673.056 251.951C672.696 250.298 672.86 248.313 673.492 246.179C704.564 223.588 721.547 244.205 722.23 245.067Z" fill="#FF843F"/>
<path d="M630.105 276.088C630.105 276.088 623.954 258.432 612.791 258.705C601.628 258.978 597.259 263.609 597.259 263.609C597.259 263.609 594.78 260.272 594.245 255.786C594.027 253.958 593.907 251.94 594.005 249.883C594.463 240.145 599.712 229.451 622.049 233.384C660.715 240.188 637.731 274.725 630.105 276.088Z" fill="#FF843F"/>
<path d="M628.585 257.615C615.994 244.598 600.399 251.984 594.245 255.786C594.027 253.958 593.907 251.94 594.005 249.883C622.627 240.697 628.585 257.615 628.585 257.615Z" fill="#DF6F2F"/>
<path d="M527.107 116.937C511.418 117.082 509.361 101.201 509.361 101.201C513.748 104.898 525.755 104.469 530.022 99.1073C520.648 100.896 517.067 89.4273 517.067 89.4273C523.25 95.505 529.732 92.8151 533.883 89.7544C536.082 81.005 537.212 70.6634 550.731 60.7907C556.398 56.6505 561.345 54.8984 565.482 54.4513C562.214 50.9508 555.336 49.973 555.336 49.973C569.876 45.2766 577.248 54.3968 579.942 59.0314C579.942 59.0314 587.397 50.4528 596.972 54.3459C596.972 54.3459 594.315 54.4731 591.25 55.8653C603.464 58.8315 615.005 78.5368 617.448 84.6727C620.185 91.5429 625.688 100.598 627.091 102.87C627.324 103.248 627.473 103.662 627.531 104.102C627.807 106.232 628.156 112.157 622.384 106.632C616.463 100.961 609.105 87.5953 600.919 87.6171C594.285 87.6316 603.682 101.568 603.682 101.568L599.207 107.097C594.776 100.114 591.447 102.655 584.907 101.659C581.861 101.194 579.927 86.3084 552.243 120.885C534.155 143.476 509.146 117.599 509.146 117.599C521.371 122.077 527.107 116.937 527.107 116.937Z" fill="#383838"/>
<path d="M392.783 527.725C384.372 536.343 343.085 542.428 298.571 530.447C276.888 524.613 327.339 362.554 355.892 351.318C386.204 339.388 437.265 346.153 443.059 342.209C445.483 340.558 421.303 362.888 434.564 390.201C434.564 390.201 420.093 390.201 409.664 403.564C376.458 446.104 399.69 520.647 392.783 527.725Z" fill="#555555"/>
</g>
<defs>
<clipPath id="clip0_87_144">
<rect width="907" height="875" fill="white"/>
</clipPath>
</defs>
</svg>
