<svg width="187" height="30" viewBox="0 0 187 30" fill="none" xmlns="http://www.w3.org/2000/svg">
    <path d="M10.5438 29.3207C9.20743 29.3207 8.21853 28.6125 7.57709 27.1959L1.20271 12.4026C0.828535 11.5206 0.815172 10.7455 1.16262 10.0773C1.5368 9.40916 2.27179 9.07507 3.36759 9.07507C3.98231 9.07507 4.47676 9.22207 4.85094 9.51606C5.22512 9.78333 5.5592 10.3045 5.8532 11.0796L10.664 23.1067L15.6353 11.0395C15.9293 10.2911 16.2633 9.78333 16.6375 9.51606C17.0384 9.22207 17.573 9.07507 18.2411 9.07507C19.0964 9.07507 19.6978 9.40916 20.0452 10.0773C20.3927 10.7455 20.3793 11.5072 20.0051 12.3625L13.5105 27.1959C12.9225 28.6125 11.9336 29.3207 10.5438 29.3207ZM32.296 29.4009C30.2647 29.4009 28.5007 28.9866 27.004 28.1581C25.5073 27.3296 24.3447 26.1536 23.5162 24.6301C22.6876 23.08 22.2733 21.2626 22.2733 19.1779C22.2733 17.0932 22.6876 15.2891 23.5162 13.7656C24.3447 12.2422 25.5073 11.0662 27.004 10.2377C28.5007 9.40916 30.2647 8.99489 32.296 8.99489C34.3272 8.99489 36.0912 9.40916 37.5879 10.2377C39.0846 11.0662 40.2472 12.2422 41.0757 13.7656C41.9043 15.2891 42.3186 17.0932 42.3186 19.1779C42.3186 21.2626 41.9043 23.08 41.0757 24.6301C40.2472 26.1536 39.0846 27.3296 37.5879 28.1581C36.0912 28.9866 34.3272 29.4009 32.296 29.4009ZM32.296 25.5923C33.7927 25.5923 34.9954 25.0578 35.9041 23.9887C36.8128 22.8929 37.2672 21.2893 37.2672 19.1779C37.2672 17.0397 36.8128 15.4494 35.9041 14.4071C34.9954 13.338 33.7927 12.8035 32.296 12.8035C30.7992 12.8035 29.5965 13.338 28.6878 14.4071C27.7791 15.4494 27.3247 17.0397 27.3247 19.1779C27.3247 21.2893 27.7791 22.8929 28.6878 23.9887C29.5965 25.0578 30.7992 25.5923 32.296 25.5923ZM53.1499 29.4009C48.6865 29.4009 46.4548 26.9019 46.4548 21.904V2.94124C46.4548 1.25744 47.2833 0.415542 48.9404 0.415542C50.6242 0.415542 51.4661 1.25744 51.4661 2.94124V21.6635C51.4661 24.0689 52.4683 25.2716 54.4728 25.2716C54.6866 25.2716 54.8871 25.2716 55.0742 25.2716C55.2613 25.2449 55.4484 25.2181 55.6355 25.1914C56.0096 25.138 56.2635 25.2449 56.3972 25.5121C56.5308 25.7527 56.5976 26.2605 56.5976 27.0356C56.5976 27.7037 56.464 28.2249 56.1967 28.5991C55.9295 28.9733 55.4885 29.2005 54.8737 29.2806C54.3125 29.3608 53.7378 29.4009 53.1499 29.4009ZM66.3531 29.4009C61.5422 29.4009 59.1368 26.7015 59.1368 21.3026V11.6008C59.1368 9.91697 59.9653 9.07507 61.6224 9.07507C63.3062 9.07507 64.1481 9.91697 64.1481 11.6008V21.3828C64.1481 22.7726 64.4287 23.8016 64.99 24.4698C65.5512 25.138 66.4466 25.472 67.676 25.472C69.0124 25.472 70.1082 25.0177 70.9635 24.109C71.8187 23.1735 72.2463 21.9441 72.2463 20.4207V11.6008C72.2463 9.91697 73.0749 9.07507 74.732 9.07507C76.4157 9.07507 77.2576 9.91697 77.2576 11.6008V26.7549C77.2576 28.4655 76.4425 29.3207 74.8121 29.3207C73.1818 29.3207 72.3666 28.4655 72.3666 26.7549V26.0734C71.057 28.2917 69.0525 29.4009 66.3531 29.4009ZM84.9591 29.3207C83.302 29.3207 82.4735 28.4655 82.4735 26.7549V11.6008C82.4735 9.91697 83.2886 9.07507 84.919 9.07507C86.5493 9.07507 87.3645 9.91697 87.3645 11.6008V12.4427C88.0327 11.3201 88.928 10.4649 90.0506 9.87688C91.1998 9.28889 92.4827 8.99489 93.8992 8.99489C98.523 8.99489 100.835 11.6809 100.835 17.0531V26.7549C100.835 28.4655 100.006 29.3207 98.3493 29.3207C96.6655 29.3207 95.8236 28.4655 95.8236 26.7549V17.2936C95.8236 15.7702 95.5296 14.661 94.9416 13.9661C94.3803 13.2712 93.4983 12.9237 92.2956 12.9237C90.8256 12.9237 89.6497 13.3915 88.7677 14.3269C87.9124 15.2356 87.4848 16.4517 87.4848 17.9751V26.7549C87.4848 28.4655 86.6429 29.3207 84.9591 29.3207Z" fill="#494949"/>
    <path d="M113.462 29.4009C111.751 29.4009 110.241 28.9866 108.932 28.1581C107.649 27.3296 106.646 26.1536 105.925 24.6301C105.203 23.08 104.842 21.2626 104.842 19.1779C104.842 17.0664 105.203 15.2624 105.925 13.7656C106.646 12.2422 107.649 11.0662 108.932 10.2377C110.241 9.40916 111.751 8.99489 113.462 8.99489C114.852 8.99489 116.108 9.30225 117.23 9.91697C118.353 10.5317 119.195 11.3469 119.756 12.3625V2.94124C119.756 1.25744 120.585 0.415542 122.242 0.415542C123.925 0.415542 124.767 1.25744 124.767 2.94124V26.7549C124.767 28.4655 123.939 29.3207 122.282 29.3207C120.625 29.3207 119.796 28.4655 119.796 26.7549V25.913C119.235 26.9821 118.393 27.8374 117.27 28.4788C116.148 29.0935 114.878 29.4009 113.462 29.4009ZM114.865 25.5923C116.362 25.5923 117.564 25.0578 118.473 23.9887C119.382 22.8929 119.836 21.2893 119.836 19.1779C119.836 17.0397 119.382 15.4494 118.473 14.4071C117.564 13.338 116.362 12.8035 114.865 12.8035C113.368 12.8035 112.166 13.338 111.257 14.4071C110.348 15.4494 109.894 17.0397 109.894 19.1779C109.894 21.2893 110.348 22.8929 111.257 23.9887C112.166 25.0578 113.368 25.5923 114.865 25.5923ZM139.625 29.4009C137.407 29.4009 135.496 28.9866 133.892 28.1581C132.289 27.3296 131.046 26.1536 130.164 24.6301C129.309 23.1067 128.881 21.3026 128.881 19.2179C128.881 17.1867 129.295 15.4094 130.124 13.8859C130.979 12.3625 132.142 11.1731 133.612 10.3179C135.108 9.43588 136.805 8.99489 138.703 8.99489C141.483 8.99489 143.674 9.87688 145.278 11.6409C146.908 13.4048 147.723 15.8103 147.723 18.8571C147.723 19.846 147.082 20.3405 145.799 20.3405H133.692C134.066 23.8417 136.07 25.5923 139.705 25.5923C140.4 25.5923 141.175 25.5121 142.031 25.3518C142.913 25.1647 143.741 24.8573 144.516 24.4297C145.211 24.0288 145.799 23.9085 146.28 24.0689C146.761 24.2025 147.095 24.4831 147.282 24.9108C147.496 25.3384 147.523 25.8195 147.363 26.354C147.229 26.8618 146.855 27.3028 146.24 27.677C145.305 28.265 144.222 28.706 142.993 29C141.79 29.2673 140.668 29.4009 139.625 29.4009ZM138.904 12.4026C137.434 12.4026 136.244 12.8569 135.335 13.7656C134.427 14.6744 133.879 15.9038 133.692 17.454H143.554C143.447 15.8236 142.993 14.5808 142.191 13.7256C141.416 12.8436 140.32 12.4026 138.904 12.4026ZM158.147 29.4009C156.73 29.4009 155.461 29.1336 154.338 28.5991C153.242 28.0378 152.374 27.2895 151.732 26.354C151.117 25.4186 150.81 24.3629 150.81 23.1869C150.81 21.7436 151.184 20.6077 151.933 19.7792C152.681 18.9239 153.897 18.3092 155.581 17.935C157.265 17.5609 159.523 17.3738 162.356 17.3738H163.759V16.5319C163.759 15.1955 163.465 14.2334 162.877 13.6454C162.289 13.0574 161.3 12.7634 159.911 12.7634C159.136 12.7634 158.294 12.8569 157.385 13.044C156.503 13.2311 155.567 13.5518 154.579 14.0062C153.937 14.3002 153.403 14.3403 152.975 14.1265C152.547 13.8859 152.253 13.5251 152.093 13.044C151.959 12.5362 151.986 12.0284 152.173 11.5206C152.387 11.0128 152.801 10.6386 153.416 10.3981C154.645 9.89024 155.821 9.52943 156.944 9.31561C158.093 9.1018 159.136 8.99489 160.071 8.99489C162.931 8.99489 165.056 9.66306 166.445 10.9994C167.835 12.309 168.53 14.3536 168.53 17.1332V26.7549C168.53 28.4655 167.755 29.3207 166.205 29.3207C164.628 29.3207 163.839 28.4655 163.839 26.7549V25.8729C163.385 26.9688 162.663 27.8374 161.675 28.4788C160.686 29.0935 159.51 29.4009 158.147 29.4009ZM159.189 25.9531C160.499 25.9531 161.581 25.4988 162.436 24.5901C163.318 23.6813 163.759 22.5321 163.759 21.1423V20.2603H162.396C159.884 20.2603 158.133 20.4607 157.144 20.8616C156.182 21.2358 155.701 21.9307 155.701 22.9463C155.701 23.8283 156.008 24.55 156.623 25.1112C157.238 25.6725 158.093 25.9531 159.189 25.9531ZM176.182 29.3207C174.472 29.3207 173.616 28.4655 173.616 26.7549V11.6008C173.616 9.91697 174.432 9.07507 176.062 9.07507C177.692 9.07507 178.508 9.91697 178.508 11.6008V12.8436C179.47 10.5451 181.528 9.26216 184.681 8.99489C185.831 8.86125 186.472 9.51606 186.606 10.9593C186.739 12.3758 186.045 13.1643 184.521 13.3247L183.639 13.4048C180.352 13.7256 178.708 15.4094 178.708 18.4562V26.7549C178.708 28.4655 177.866 29.3207 176.182 29.3207Z" fill="#FF843F"/>
</svg>
